<?xml version="1.0" encoding="UTF-8" standalone="no"?>
<!DOCTYPE svg PUBLIC "-//W3C//DTD SVG 1.1//EN" "http://www.w3.org/Graphics/SVG/1.1/DTD/svg11.dtd">
<svg width="40px" height="40px" viewBox="0 0 40 40" version="1.1" xmlns="http://www.w3.org/2000/svg" xmlns:xlink="http://www.w3.org/1999/xlink" xml:space="preserve" xmlns:serif="http://www.serif.com/" style="fill-rule:evenodd;clip-rule:evenodd;stroke-linejoin:round;stroke-miterlimit:2;">
    <g transform="matrix(0.772947,0,0,0.772947,2.22222,2.22222)">
        <path d="M43.7,41.934C43.7,42.909 42.909,43.7 41.952,43.7L4.066,43.7C3.091,43.7 2.3,42.909 2.3,41.952L2.3,4.066C2.3,3.091 3.091,2.3 4.048,2.3L41.934,2.3C42.909,2.3 43.7,3.091 43.7,4.048L43.7,41.934Z" style="fill:rgb(240,135,5);fill-rule:nonzero;"/>
        <path d="M43.7,41.934C43.7,42.909 42.909,43.7 41.952,43.7L16.486,43.7L8.243,35.328L13.377,26.956L28.594,8.059L43.7,23.607L43.7,41.934Z" style="fill:rgb(223,108,12);fill-rule:nonzero;"/>
        <path d="M36.303,25.447L31.906,25.447L27.306,17.59C28.354,17.37 29.109,16.45 29.09,15.382L29.09,9.476C29.09,8.225 28.097,7.213 26.846,7.213L19.154,7.213C17.903,7.213 16.891,8.206 16.891,9.458L16.891,15.382C16.891,16.45 17.627,17.37 18.676,17.59L14.076,25.447L9.734,25.447C8.482,25.447 7.47,26.441 7.47,27.692L7.47,33.617C7.47,34.868 8.464,35.88 9.715,35.88L17.406,35.88C18.658,35.88 19.67,34.886 19.67,33.635L19.67,27.71C19.67,26.459 18.676,25.447 17.425,25.447L16.67,25.447L21.234,17.646L24.785,17.646L29.366,25.447L28.612,25.447C27.361,25.447 26.349,26.441 26.349,27.692L26.349,33.617C26.349,34.868 27.342,35.88 28.594,35.88L36.285,35.88C37.536,35.88 38.548,34.886 38.548,33.635L38.548,27.71C38.548,26.459 37.554,25.447 36.303,25.447Z" style="fill:white;fill-rule:nonzero;"/>
    </g>
</svg>
