<svg width="1024" height="1024" viewBox="0 0 1024 1024" fill="none" xmlns="http://www.w3.org/2000/svg">
  <g filter="url(#filter0_di_203_2)">
    <path fill-rule="evenodd" clip-rule="evenodd" d="M924 356.627C924 346.845 924.004 337.062 923.944 327.279C923.895 319.038 923.8 310.799 923.576 302.562C923.092 284.609 922.033 266.502 918.84 248.749C915.602 230.741 910.314 213.98 901.981 197.617C893.789 181.534 883.088 166.817 870.32 154.058C857.555 141.299 842.834 130.605 826.746 122.418C810.366 114.083 793.587 108.797 775.558 105.56C757.803 102.372 739.691 101.315 721.738 100.83C713.495 100.607 705.253 100.513 697.008 100.462C687.22 100.402 677.432 100.407 667.644 100.407L553.997 100H468.997L357.361 100.407C347.554 100.407 337.747 100.402 327.94 100.462C319.678 100.513 311.42 100.607 303.161 100.83C285.167 101.315 267.014 102.373 249.217 105.565C231.164 108.801 214.36 114.085 197.958 122.414C181.835 130.602 167.083 141.297 154.291 154.058C141.501 166.816 130.78 181.53 122.573 197.61C114.217 213.981 108.919 230.752 105.673 248.77C102.477 266.516 101.418 284.617 100.931 302.562C100.709 310.8 100.613 319.039 100.563 327.279C100.503 337.063 100 349.216 100 358.999L100.003 469.089L100 554.998L100.508 667.427C100.508 677.223 100.504 687.019 100.563 696.815C100.613 705.067 100.709 713.317 100.932 721.566C101.418 739.542 102.479 757.675 105.678 775.452C108.923 793.484 114.22 810.269 122.569 826.653C130.777 842.759 141.5 857.495 154.291 870.272C167.082 883.049 181.83 893.757 197.95 901.956C214.362 910.302 231.174 915.595 249.238 918.836C267.027 922.029 285.174 923.088 303.161 923.573C311.42 923.796 319.679 923.891 327.941 923.941C337.748 924.001 347.554 923.997 357.361 923.997L470.006 924H555.217L667.644 923.996C677.432 923.996 687.22 924.001 697.008 923.941C705.253 923.891 713.495 923.796 721.738 923.573C739.698 923.087 757.816 922.027 775.579 918.832C793.597 915.591 810.368 910.3 826.739 901.959C842.831 893.761 857.554 883.051 870.32 870.272C883.086 857.497 893.786 842.763 901.978 826.66C910.316 810.268 915.604 793.475 918.844 775.431C922.034 757.661 923.092 739.535 923.577 721.566C923.8 713.316 923.895 705.066 923.944 696.815C924.005 687.019 924 677.223 924 667.427C924 667.427 923.994 556.983 923.994 554.998V468.999C923.994 467.533 924 356.627 924 356.627Z" fill="#2E94D4"/>
  </g>
  <path d="M384.796 300.831H274.151C266.852 300.831 260.935 294.915 260.935 287.616C260.935 280.317 266.852 274.4 274.151 274.4H418.366C429.951 274.4 436.419 287.773 429.227 296.855L307.555 450.498C305.376 453.25 307.336 457.302 310.846 457.302H421.635C429.226 457.302 435.379 463.456 435.379 471.046C435.379 478.637 429.226 484.79 421.635 484.79H274.147C261.999 484.79 255.241 470.743 262.823 461.252L387.118 305.659C388.674 303.713 387.287 300.831 384.796 300.831Z" fill="white"/>
  <path fill-rule="evenodd" clip-rule="evenodd" d="M274.679 531.309H748.321C756.495 531.309 763.122 537.936 763.122 546.11V619.06H792.725C803.819 619.06 812.812 628.053 812.812 639.147C812.812 650.241 803.819 659.235 792.725 659.235H763.122V741.699C763.122 749.873 756.495 756.5 748.321 756.5H274.679C266.505 756.5 259.878 749.873 259.878 741.699V659.235H230.275C219.181 659.235 210.188 650.241 210.188 639.147C210.188 628.053 219.181 619.06 230.275 619.06H259.878V546.11C259.878 537.936 266.505 531.309 274.679 531.309ZM335.999 572.541H303.225V655.005C303.225 688.287 330.205 715.268 363.487 715.268C396.769 715.268 423.749 688.287 423.749 655.005V572.541H392.032V656.591C392.032 672.064 379.489 684.608 364.016 684.608C348.542 684.608 335.999 672.064 335.999 656.591V572.541ZM448.066 712.096V572.541H490.355L526.301 647.605L560.133 572.541H602.422V712.096H572.82V626.46L534.759 701.524H515.729L478.726 626.46V712.096H448.066ZM628.853 572.541V712.096H718.718V684.608H659.513V572.541H628.853Z" fill="white"/>
  <path fill-rule="evenodd" clip-rule="evenodd" d="M577.46 404.331L479.13 422.569C470.455 424.178 465.279 433.094 470.737 440.027C479.012 450.539 493.696 461.038 516.786 460.475C534.548 460.475 547.446 454.131 553.789 450.959L553.935 450.886C558.279 448.713 569.645 443.026 574.934 450.959C579.163 457.303 577.048 465.761 571.762 468.932C571.207 469.266 570.523 469.715 569.705 470.254C562.735 474.84 546.006 485.848 515.729 485.848C481.897 485.848 445.951 466.818 436.436 429.815L434.611 421.547C425.472 380.154 449.471 338.638 489.902 325.899C493.718 324.697 497.647 323.888 501.628 323.484L504.46 323.196C541.688 319.42 576.36 342.59 587.113 378.432L589.141 385.192C591.716 393.776 586.272 402.696 577.46 404.331ZM470.846 403.768L554.914 387.67C558.232 387.034 560.225 383.615 559.142 380.416C542.393 330.918 470.218 338.23 463.737 390.081L462.951 396.369C462.388 400.876 466.385 404.622 470.846 403.768Z" fill="white"/>
  <path d="M611.938 467.875V339.949C611.938 331.775 618.564 325.148 626.739 325.148C634.913 325.148 641.54 331.775 641.54 339.949V349.464L646.924 343.379C678.453 307.736 736.314 316.817 755.409 360.404C760.496 372.015 763.122 384.554 763.122 397.23V467.875C763.122 476.049 756.495 482.676 748.321 482.676C740.146 482.676 733.52 476.049 733.52 467.875V396.411C733.52 391.213 732.851 386.037 731.532 381.009C722.842 347.906 680.877 337.673 657.924 363.06L656.497 364.638C646.87 375.286 641.54 389.129 641.54 403.484V467.875C641.54 476.049 634.913 482.676 626.739 482.676C618.564 482.676 611.938 476.049 611.938 467.875Z" fill="white"/>
  <defs>
    <filter id="filter0_di_203_2" x="90" y="97" width="844" height="847" filterUnits="userSpaceOnUse" color-interpolation-filters="sRGB">
      <feFlood flood-opacity="0" result="BackgroundImageFix"/>
      <feColorMatrix in="SourceAlpha" type="matrix" values="0 0 0 0 0 0 0 0 0 0 0 0 0 0 0 0 0 0 127 0" result="hardAlpha"/>
      <feOffset dy="10"/>
      <feGaussianBlur stdDeviation="5"/>
      <feColorMatrix type="matrix" values="0 0 0 0 0 0 0 0 0 0 0 0 0 0 0 0 0 0 0.3 0"/>
      <feBlend mode="normal" in2="BackgroundImageFix" result="effect1_dropShadow_203_2"/>
      <feBlend mode="normal" in="SourceGraphic" in2="effect1_dropShadow_203_2" result="shape"/>
      <feColorMatrix in="SourceAlpha" type="matrix" values="0 0 0 0 0 0 0 0 0 0 0 0 0 0 0 0 0 0 127 0" result="hardAlpha"/>
      <feOffset dy="-3"/>
      <feGaussianBlur stdDeviation="2"/>
      <feComposite in2="hardAlpha" operator="arithmetic" k2="-1" k3="1"/>
      <feColorMatrix type="matrix" values="0 0 0 0 0 0 0 0 0 0 0 0 0 0 0 0 0 0 0.25 0"/>
      <feBlend mode="normal" in2="shape" result="effect2_innerShadow_203_2"/>
    </filter>
  </defs>
</svg>
