<?xml version="1.0" encoding="UTF-8" standalone="no"?><svg xmlns="http://www.w3.org/2000/svg" xmlns:xlink="http://www.w3.org/1999/xlink" contentScriptType="application/ecmascript" contentStyleType="text/css" height="412px" preserveAspectRatio="none" style="width:793px;height:412px;" version="1.1" viewBox="0 0 793 412" width="793px" zoomAndPan="magnify"><defs><filter height="300%" id="f1r4ewa3crvrgc" width="300%" x="-1" y="-1"><feGaussianBlur result="blurOut" stdDeviation="2.0"/><feColorMatrix in="blurOut" result="blurOut2" type="matrix" values="0 0 0 0 0 0 0 0 0 0 0 0 0 0 0 0 0 0 .4 0"/><feOffset dx="4.0" dy="4.0" in="blurOut2" result="blurOut3"/><feBlend in="SourceGraphic" in2="blurOut3" mode="normal"/></filter></defs><g><rect fill="#FFFFFF" filter="url(#f1r4ewa3crvrgc)" height="220.0625" style="stroke: #A80036; stroke-width: 1.0;" width="10" x="136" y="96.2969"/><rect fill="#FFFFFF" filter="url(#f1r4ewa3crvrgc)" height="96.5313" style="stroke: #A80036; stroke-width: 1.0;" width="10" x="466.5" y="219.8281"/><rect fill="#FFFFFF" filter="url(#f1r4ewa3crvrgc)" height="67.3984" style="stroke: #A80036; stroke-width: 1.0;" width="10" x="630" y="248.9609"/><rect fill="#FFFFFF" filter="url(#f1r4ewa3crvrgc)" height="38.2656" style="stroke: #A80036; stroke-width: 1.0;" width="10" x="749.5" y="278.0938"/><line style="stroke: #A80036; stroke-width: 1.0; stroke-dasharray: 5.0,5.0;" x1="27" x2="27" y1="86.2969" y2="325.3594"/><line style="stroke: #A80036; stroke-width: 1.0; stroke-dasharray: 5.0,5.0;" x1="141" x2="141" y1="86.2969" y2="325.3594"/><line style="stroke: #A80036; stroke-width: 1.0; stroke-dasharray: 5.0,5.0;" x1="282" x2="282" y1="86.2969" y2="325.3594"/><line style="stroke: #A80036; stroke-width: 1.0; stroke-dasharray: 5.0,5.0;" x1="471" x2="471" y1="86.2969" y2="325.3594"/><line style="stroke: #A80036; stroke-width: 1.0; stroke-dasharray: 5.0,5.0;" x1="635" x2="635" y1="86.2969" y2="325.3594"/><line style="stroke: #A80036; stroke-width: 1.0; stroke-dasharray: 5.0,5.0;" x1="754" x2="754" y1="86.2969" y2="325.3594"/><text fill="#000000" font-family="sans-serif" font-size="14" lengthAdjust="spacingAndGlyphs" textLength="32" x="8" y="82.9951">User</text><ellipse cx="27" cy="13" fill="#FEFECE" filter="url(#f1r4ewa3crvrgc)" rx="8" ry="8" style="stroke: #A80036; stroke-width: 2.0;"/><path d="M27,21 L27,48 M14,29 L40,29 M27,48 L14,63 M27,48 L40,63 " fill="none" filter="url(#f1r4ewa3crvrgc)" style="stroke: #A80036; stroke-width: 2.0;"/><text fill="#000000" font-family="sans-serif" font-size="14" lengthAdjust="spacingAndGlyphs" textLength="32" x="8" y="337.3545">User</text><ellipse cx="27" cy="350.6563" fill="#FEFECE" filter="url(#f1r4ewa3crvrgc)" rx="8" ry="8" style="stroke: #A80036; stroke-width: 2.0;"/><path d="M27,358.6563 L27,385.6563 M14,366.6563 L40,366.6563 M27,385.6563 L14,400.6563 M27,385.6563 L40,400.6563 " fill="none" filter="url(#f1r4ewa3crvrgc)" style="stroke: #A80036; stroke-width: 2.0;"/><rect fill="#FEFECE" filter="url(#f1r4ewa3crvrgc)" height="30.2969" style="stroke: #A80036; stroke-width: 1.5;" width="52" x="113" y="51"/><text fill="#000000" font-family="sans-serif" font-size="14" lengthAdjust="spacingAndGlyphs" textLength="38" x="120" y="70.9951">Intellij</text><rect fill="#FEFECE" filter="url(#f1r4ewa3crvrgc)" height="30.2969" style="stroke: #A80036; stroke-width: 1.5;" width="52" x="113" y="324.3594"/><text fill="#000000" font-family="sans-serif" font-size="14" lengthAdjust="spacingAndGlyphs" textLength="38" x="120" y="344.3545">Intellij</text><rect fill="#FEFECE" filter="url(#f1r4ewa3crvrgc)" height="36" style="stroke: #A80036; stroke-width: 1.5;" width="203" x="179" y="45.2969"/><ellipse cx="197" cy="63.2969" fill="#ADD1B2" rx="11" ry="11" style="stroke: #A80036; stroke-width: 1.0;"/><path d="M199.9688,68.9375 Q199.3906,69.2344 198.75,69.375 Q198.1094,69.5313 197.4063,69.5313 Q194.9063,69.5313 193.5781,67.8906 Q192.2656,66.2344 192.2656,63.1094 Q192.2656,59.9844 193.5781,58.3281 Q194.9063,56.6719 197.4063,56.6719 Q198.1094,56.6719 198.75,56.8281 Q199.4063,56.9844 199.9688,57.2813 L199.9688,60 Q199.3438,59.4219 198.75,59.1563 Q198.1563,58.875 197.5313,58.875 Q196.1875,58.875 195.5,59.9531 Q194.8125,61.0156 194.8125,63.1094 Q194.8125,65.2031 195.5,66.2813 Q196.1875,67.3438 197.5313,67.3438 Q198.1563,67.3438 198.75,67.0781 Q199.3438,66.7969 199.9688,66.2188 L199.9688,68.9375 Z "/><text fill="#000000" font-family="sans-serif" font-size="14" lengthAdjust="spacingAndGlyphs" textLength="161" x="214" y="66.2969">DiagramsEditorProvider</text><rect fill="#FEFECE" filter="url(#f1r4ewa3crvrgc)" height="36" style="stroke: #A80036; stroke-width: 1.5;" width="203" x="179" y="324.3594"/><ellipse cx="197" cy="342.3594" fill="#ADD1B2" rx="11" ry="11" style="stroke: #A80036; stroke-width: 1.0;"/><path d="M199.9688,348 Q199.3906,348.2969 198.75,348.4375 Q198.1094,348.5938 197.4063,348.5938 Q194.9063,348.5938 193.5781,346.9531 Q192.2656,345.2969 192.2656,342.1719 Q192.2656,339.0469 193.5781,337.3906 Q194.9063,335.7344 197.4063,335.7344 Q198.1094,335.7344 198.75,335.8906 Q199.4063,336.0469 199.9688,336.3438 L199.9688,339.0625 Q199.3438,338.4844 198.75,338.2188 Q198.1563,337.9375 197.5313,337.9375 Q196.1875,337.9375 195.5,339.0156 Q194.8125,340.0781 194.8125,342.1719 Q194.8125,344.2656 195.5,345.3438 Q196.1875,346.4063 197.5313,346.4063 Q198.1563,346.4063 198.75,346.1406 Q199.3438,345.8594 199.9688,345.2813 L199.9688,348 Z "/><text fill="#000000" font-family="sans-serif" font-size="14" lengthAdjust="spacingAndGlyphs" textLength="161" x="214" y="345.3594">DiagramsEditorProvider</text><rect fill="#FEFECE" filter="url(#f1r4ewa3crvrgc)" height="36" style="stroke: #A80036; stroke-width: 1.5;" width="147" x="396" y="45.2969"/><ellipse cx="414" cy="63.2969" fill="#ADD1B2" rx="11" ry="11" style="stroke: #A80036; stroke-width: 1.0;"/><path d="M416.9688,68.9375 Q416.3906,69.2344 415.75,69.375 Q415.1094,69.5313 414.4063,69.5313 Q411.9063,69.5313 410.5781,67.8906 Q409.2656,66.2344 409.2656,63.1094 Q409.2656,59.9844 410.5781,58.3281 Q411.9063,56.6719 414.4063,56.6719 Q415.1094,56.6719 415.75,56.8281 Q416.4063,56.9844 416.9688,57.2813 L416.9688,60 Q416.3438,59.4219 415.75,59.1563 Q415.1563,58.875 414.5313,58.875 Q413.1875,58.875 412.5,59.9531 Q411.8125,61.0156 411.8125,63.1094 Q411.8125,65.2031 412.5,66.2813 Q413.1875,67.3438 414.5313,67.3438 Q415.1563,67.3438 415.75,67.0781 Q416.3438,66.7969 416.9688,66.2188 L416.9688,68.9375 Z "/><text fill="#000000" font-family="sans-serif" font-size="14" lengthAdjust="spacingAndGlyphs" textLength="105" x="431" y="66.2969">DiagramsEditor</text><rect fill="#FEFECE" filter="url(#f1r4ewa3crvrgc)" height="36" style="stroke: #A80036; stroke-width: 1.5;" width="147" x="396" y="324.3594"/><ellipse cx="414" cy="342.3594" fill="#ADD1B2" rx="11" ry="11" style="stroke: #A80036; stroke-width: 1.0;"/><path d="M416.9688,348 Q416.3906,348.2969 415.75,348.4375 Q415.1094,348.5938 414.4063,348.5938 Q411.9063,348.5938 410.5781,346.9531 Q409.2656,345.2969 409.2656,342.1719 Q409.2656,339.0469 410.5781,337.3906 Q411.9063,335.7344 414.4063,335.7344 Q415.1094,335.7344 415.75,335.8906 Q416.4063,336.0469 416.9688,336.3438 L416.9688,339.0625 Q416.3438,338.4844 415.75,338.2188 Q415.1563,337.9375 414.5313,337.9375 Q413.1875,337.9375 412.5,339.0156 Q411.8125,340.0781 411.8125,342.1719 Q411.8125,344.2656 412.5,345.3438 Q413.1875,346.4063 414.5313,346.4063 Q415.1563,346.4063 415.75,346.1406 Q416.3438,345.8594 416.9688,345.2813 L416.9688,348 Z "/><text fill="#000000" font-family="sans-serif" font-size="14" lengthAdjust="spacingAndGlyphs" textLength="105" x="431" y="345.3594">DiagramsEditor</text><rect fill="#FEFECE" filter="url(#f1r4ewa3crvrgc)" height="36" style="stroke: #A80036; stroke-width: 1.5;" width="152" x="557" y="45.2969"/><ellipse cx="575" cy="63.2969" fill="#ADD1B2" rx="11" ry="11" style="stroke: #A80036; stroke-width: 1.0;"/><path d="M577.9688,68.9375 Q577.3906,69.2344 576.75,69.375 Q576.1094,69.5313 575.4063,69.5313 Q572.9063,69.5313 571.5781,67.8906 Q570.2656,66.2344 570.2656,63.1094 Q570.2656,59.9844 571.5781,58.3281 Q572.9063,56.6719 575.4063,56.6719 Q576.1094,56.6719 576.75,56.8281 Q577.4063,56.9844 577.9688,57.2813 L577.9688,60 Q577.3438,59.4219 576.75,59.1563 Q576.1563,58.875 575.5313,58.875 Q574.1875,58.875 573.5,59.9531 Q572.8125,61.0156 572.8125,63.1094 Q572.8125,65.2031 573.5,66.2813 Q574.1875,67.3438 575.5313,67.3438 Q576.1563,67.3438 576.75,67.0781 Q577.3438,66.7969 577.9688,66.2188 L577.9688,68.9375 Z "/><text fill="#000000" font-family="sans-serif" font-size="14" lengthAdjust="spacingAndGlyphs" textLength="110" x="592" y="66.2969">DrawioWebView</text><rect fill="#FEFECE" filter="url(#f1r4ewa3crvrgc)" height="36" style="stroke: #A80036; stroke-width: 1.5;" width="152" x="557" y="324.3594"/><ellipse cx="575" cy="342.3594" fill="#ADD1B2" rx="11" ry="11" style="stroke: #A80036; stroke-width: 1.0;"/><path d="M577.9688,348 Q577.3906,348.2969 576.75,348.4375 Q576.1094,348.5938 575.4063,348.5938 Q572.9063,348.5938 571.5781,346.9531 Q570.2656,345.2969 570.2656,342.1719 Q570.2656,339.0469 571.5781,337.3906 Q572.9063,335.7344 575.4063,335.7344 Q576.1094,335.7344 576.75,335.8906 Q577.4063,336.0469 577.9688,336.3438 L577.9688,339.0625 Q577.3438,338.4844 576.75,338.2188 Q576.1563,337.9375 575.5313,337.9375 Q574.1875,337.9375 573.5,339.0156 Q572.8125,340.0781 572.8125,342.1719 Q572.8125,344.2656 573.5,345.3438 Q574.1875,346.4063 575.5313,346.4063 Q576.1563,346.4063 576.75,346.1406 Q577.3438,345.8594 577.9688,345.2813 L577.9688,348 Z "/><text fill="#000000" font-family="sans-serif" font-size="14" lengthAdjust="spacingAndGlyphs" textLength="110" x="592" y="345.3594">DrawioWebView</text><rect fill="#FEFECE" filter="url(#f1r4ewa3crvrgc)" height="30.2969" style="stroke: #A80036; stroke-width: 1.5;" width="59" x="723" y="51"/><text fill="#000000" font-family="sans-serif" font-size="14" lengthAdjust="spacingAndGlyphs" textLength="45" x="730" y="70.9951">drawio</text><rect fill="#FEFECE" filter="url(#f1r4ewa3crvrgc)" height="30.2969" style="stroke: #A80036; stroke-width: 1.5;" width="59" x="723" y="324.3594"/><text fill="#000000" font-family="sans-serif" font-size="14" lengthAdjust="spacingAndGlyphs" textLength="45" x="730" y="344.3545">drawio</text><rect fill="#FFFFFF" filter="url(#f1r4ewa3crvrgc)" height="220.0625" style="stroke: #A80036; stroke-width: 1.0;" width="10" x="136" y="96.2969"/><rect fill="#FFFFFF" filter="url(#f1r4ewa3crvrgc)" height="96.5313" style="stroke: #A80036; stroke-width: 1.0;" width="10" x="466.5" y="219.8281"/><rect fill="#FFFFFF" filter="url(#f1r4ewa3crvrgc)" height="67.3984" style="stroke: #A80036; stroke-width: 1.0;" width="10" x="630" y="248.9609"/><rect fill="#FFFFFF" filter="url(#f1r4ewa3crvrgc)" height="38.2656" style="stroke: #A80036; stroke-width: 1.0;" width="10" x="749.5" y="278.0938"/><polygon fill="#A80036" points="124,128.2969,134,132.2969,124,136.2969,128,132.2969" style="stroke: #A80036; stroke-width: 1.0;"/><line style="stroke: #A80036; stroke-width: 1.0;" x1="27" x2="130" y1="132.2969" y2="132.2969"/><text fill="#000000" font-family="sans-serif" font-size="13" lengthAdjust="spacingAndGlyphs" textLength="74" x="34" y="112.3638">double click</text><text fill="#000000" font-family="sans-serif" font-size="13" lengthAdjust="spacingAndGlyphs" textLength="75" x="34" y="127.4966">diagram file</text><polygon fill="#A80036" points="270.5,157.5625,280.5,161.5625,270.5,165.5625,274.5,161.5625" style="stroke: #A80036; stroke-width: 1.0;"/><line style="stroke: #A80036; stroke-width: 1.0;" x1="146" x2="276.5" y1="161.5625" y2="161.5625"/><text fill="#000000" font-family="sans-serif" font-size="13" lengthAdjust="spacingAndGlyphs" textLength="108" x="153" y="156.6294">accept(filename)</text><polygon fill="#A80036" points="157,186.6953,147,190.6953,157,194.6953,153,190.6953" style="stroke: #A80036; stroke-width: 1.0;"/><line style="stroke: #A80036; stroke-width: 1.0; stroke-dasharray: 2.0,2.0;" x1="151" x2="281.5" y1="190.6953" y2="190.6953"/><text fill="#000000" font-family="sans-serif" font-size="13" lengthAdjust="spacingAndGlyphs" textLength="26" x="163" y="185.7622">true</text><polygon fill="#A80036" points="454.5,215.8281,464.5,219.8281,454.5,223.8281,458.5,219.8281" style="stroke: #A80036; stroke-width: 1.0;"/><line style="stroke: #A80036; stroke-width: 1.0;" x1="146" x2="460.5" y1="219.8281" y2="219.8281"/><text fill="#000000" font-family="sans-serif" font-size="13" lengthAdjust="spacingAndGlyphs" textLength="68" x="153" y="214.895">instantiate</text><polygon fill="#A80036" points="618,244.9609,628,248.9609,618,252.9609,622,248.9609" style="stroke: #A80036; stroke-width: 1.0;"/><line style="stroke: #A80036; stroke-width: 1.0;" x1="476.5" x2="624" y1="248.9609" y2="248.9609"/><text fill="#000000" font-family="sans-serif" font-size="13" lengthAdjust="spacingAndGlyphs" textLength="68" x="483.5" y="244.0278">instantiate</text><polygon fill="#A80036" points="737.5,274.0938,747.5,278.0938,737.5,282.0938,741.5,278.0938" style="stroke: #A80036; stroke-width: 1.0;"/><line style="stroke: #A80036; stroke-width: 1.0;" x1="640" x2="743.5" y1="278.0938" y2="278.0938"/><text fill="#000000" font-family="sans-serif" font-size="13" lengthAdjust="spacingAndGlyphs" textLength="27" x="647" y="273.1606">load</text><polygon fill="#A80036" points="38,303.2266,28,307.2266,38,311.2266,34,307.2266" style="stroke: #A80036; stroke-width: 1.0;"/><line style="stroke: #A80036; stroke-width: 1.0; stroke-dasharray: 2.0,2.0;" x1="32" x2="135" y1="307.2266" y2="307.2266"/><text fill="#000000" font-family="sans-serif" font-size="13" lengthAdjust="spacingAndGlyphs" textLength="85" x="44" y="302.2935">display editor</text><!--
@startuml
actor User as user
participant "Intellij" as intellij
participant DiagramsEditorProvider as editorprovider <<(C,#ADD1B2)>>
participant DiagramsEditor as editor <<(C,#ADD1B2)>>
participant DrawioWebView as webview <<(C,#ADD1B2)>>
activate intellij
user -> intellij: double click\ndiagram file
  intellij -> editorprovider : accept(filename)
  intellij <- - editorprovider : true
  intellij -> editor : instantiate
    activate editor
    editor -> webview : instantiate
    activate webview
    webview -> drawio : load
    activate drawio
user <- - intellij : display editor
@enduml

PlantUML version 1.2018.01(Sun Jan 28 19:08:22 CET 2018)
(APACHE source distribution)
Java Runtime: OpenJDK Runtime Environment
JVM: OpenJDK 64-Bit Server VM
Java Version: 1.8.0_265-b01
Operating System: Linux
OS Version: 4.19.104-microsoft-standard
Default Encoding: UTF-8
Language: en
Country: US
--></g></svg>