<?xml version="1.0" encoding="UTF-8" standalone="no"?><svg xmlns="http://www.w3.org/2000/svg" xmlns:xlink="http://www.w3.org/1999/xlink" contentScriptType="application/ecmascript" contentStyleType="text/css" height="524px" preserveAspectRatio="none" style="width:653px;height:524px;" version="1.1" viewBox="0 0 653 524" width="653px" zoomAndPan="magnify"><defs><filter height="300%" id="f1trpczjpca2ce" width="300%" x="-1" y="-1"><feGaussianBlur result="blurOut" stdDeviation="2.0"/><feColorMatrix in="blurOut" result="blurOut2" type="matrix" values="0 0 0 0 0 0 0 0 0 0 0 0 0 0 0 0 0 0 .4 0"/><feOffset dx="4.0" dy="4.0" in="blurOut2" result="blurOut3"/><feBlend in="SourceGraphic" in2="blurOut3" mode="normal"/></filter></defs><g><rect fill="#FFFFFF" filter="url(#f1trpczjpca2ce)" height="87.3984" style="stroke: #FFFFFF; stroke-width: 1.0;" width="10" x="31" y="54"/><line style="stroke: #A80036; stroke-width: 1.0;" x1="31" x2="31" y1="54" y2="141.3984"/><line style="stroke: #A80036; stroke-width: 1.0;" x1="41" x2="41" y1="54" y2="141.3984"/><line style="stroke: #A80036; stroke-width: 1.0;" x1="31" x2="41" y1="54" y2="54"/><rect fill="#FFFFFF" filter="url(#f1trpczjpca2ce)" height="142.5313" style="stroke: #FFFFFF; stroke-width: 1.0;" width="10" x="31" y="169.3984"/><line style="stroke: #A80036; stroke-width: 1.0;" x1="31" x2="31" y1="169.3984" y2="311.9297"/><line style="stroke: #A80036; stroke-width: 1.0;" x1="41" x2="41" y1="169.3984" y2="311.9297"/><rect fill="#FFFFFF" filter="url(#f1trpczjpca2ce)" height="29.1328" style="stroke: #FFFFFF; stroke-width: 1.0;" width="10" x="31" y="339.9297"/><line style="stroke: #A80036; stroke-width: 1.0;" x1="31" x2="31" y1="339.9297" y2="369.0625"/><line style="stroke: #A80036; stroke-width: 1.0;" x1="41" x2="41" y1="339.9297" y2="369.0625"/><rect fill="#FFFFFF" filter="url(#f1trpczjpca2ce)" height="72.2656" style="stroke: #FFFFFF; stroke-width: 1.0;" width="10" x="31" y="397.0625"/><line style="stroke: #A80036; stroke-width: 1.0;" x1="31" x2="31" y1="397.0625" y2="469.3281"/><line style="stroke: #A80036; stroke-width: 1.0;" x1="41" x2="41" y1="397.0625" y2="469.3281"/><rect fill="#FFFFFF" filter="url(#f1trpczjpca2ce)" height="66.3984" style="stroke: #FFFFFF; stroke-width: 1.0;" width="10" x="144.5" y="75"/><line style="stroke: #A80036; stroke-width: 1.0;" x1="144.5" x2="144.5" y1="75" y2="141.3984"/><line style="stroke: #A80036; stroke-width: 1.0;" x1="154.5" x2="154.5" y1="75" y2="141.3984"/><line style="stroke: #A80036; stroke-width: 1.0;" x1="144.5" x2="154.5" y1="75" y2="75"/><rect fill="#FFFFFF" filter="url(#f1trpczjpca2ce)" height="142.5313" style="stroke: #FFFFFF; stroke-width: 1.0;" width="10" x="144.5" y="169.3984"/><line style="stroke: #A80036; stroke-width: 1.0;" x1="144.5" x2="144.5" y1="169.3984" y2="311.9297"/><line style="stroke: #A80036; stroke-width: 1.0;" x1="154.5" x2="154.5" y1="169.3984" y2="311.9297"/><rect fill="#FFFFFF" filter="url(#f1trpczjpca2ce)" height="29.1328" style="stroke: #FFFFFF; stroke-width: 1.0;" width="10" x="144.5" y="339.9297"/><line style="stroke: #A80036; stroke-width: 1.0;" x1="144.5" x2="144.5" y1="339.9297" y2="369.0625"/><line style="stroke: #A80036; stroke-width: 1.0;" x1="154.5" x2="154.5" y1="339.9297" y2="369.0625"/><rect fill="#FFFFFF" filter="url(#f1trpczjpca2ce)" height="72.2656" style="stroke: #FFFFFF; stroke-width: 1.0;" width="10" x="144.5" y="397.0625"/><line style="stroke: #A80036; stroke-width: 1.0;" x1="144.5" x2="144.5" y1="397.0625" y2="469.3281"/><line style="stroke: #A80036; stroke-width: 1.0;" x1="154.5" x2="154.5" y1="397.0625" y2="469.3281"/><rect fill="#FFFFFF" filter="url(#f1trpczjpca2ce)" height="37.2656" style="stroke: #FFFFFF; stroke-width: 1.0;" width="10" x="308" y="104.1328"/><line style="stroke: #A80036; stroke-width: 1.0;" x1="308" x2="308" y1="104.1328" y2="141.3984"/><line style="stroke: #A80036; stroke-width: 1.0;" x1="318" x2="318" y1="104.1328" y2="141.3984"/><line style="stroke: #A80036; stroke-width: 1.0;" x1="308" x2="318" y1="104.1328" y2="104.1328"/><rect fill="#FFFFFF" filter="url(#f1trpczjpca2ce)" height="142.5313" style="stroke: #FFFFFF; stroke-width: 1.0;" width="10" x="308" y="169.3984"/><line style="stroke: #A80036; stroke-width: 1.0;" x1="308" x2="308" y1="169.3984" y2="311.9297"/><line style="stroke: #A80036; stroke-width: 1.0;" x1="318" x2="318" y1="169.3984" y2="311.9297"/><rect fill="#FFFFFF" filter="url(#f1trpczjpca2ce)" height="29.1328" style="stroke: #FFFFFF; stroke-width: 1.0;" width="10" x="308" y="339.9297"/><line style="stroke: #A80036; stroke-width: 1.0;" x1="308" x2="308" y1="339.9297" y2="369.0625"/><line style="stroke: #A80036; stroke-width: 1.0;" x1="318" x2="318" y1="339.9297" y2="369.0625"/><rect fill="#FFFFFF" filter="url(#f1trpczjpca2ce)" height="72.2656" style="stroke: #FFFFFF; stroke-width: 1.0;" width="10" x="308" y="397.0625"/><line style="stroke: #A80036; stroke-width: 1.0;" x1="308" x2="308" y1="397.0625" y2="469.3281"/><line style="stroke: #A80036; stroke-width: 1.0;" x1="318" x2="318" y1="397.0625" y2="469.3281"/><rect fill="#FFFFFF" filter="url(#f1trpczjpca2ce)" height="113.3984" style="stroke: #A80036; stroke-width: 1.0;" width="10" x="313" y="190.3984"/><rect fill="#FFFFFF" filter="url(#f1trpczjpca2ce)" height="35.1328" style="stroke: #A80036; stroke-width: 1.0;" width="10" x="313" y="418.0625"/><rect fill="#FFFFFF" filter="url(#f1trpczjpca2ce)" height="8.1328" style="stroke: #FFFFFF; stroke-width: 1.0;" width="10" x="610" y="133.2656"/><line style="stroke: #A80036; stroke-width: 1.0;" x1="610" x2="610" y1="133.2656" y2="141.3984"/><line style="stroke: #A80036; stroke-width: 1.0;" x1="620" x2="620" y1="133.2656" y2="141.3984"/><line style="stroke: #A80036; stroke-width: 1.0;" x1="610" x2="620" y1="133.2656" y2="133.2656"/><rect fill="#FFFFFF" filter="url(#f1trpczjpca2ce)" height="142.5313" style="stroke: #FFFFFF; stroke-width: 1.0;" width="10" x="610" y="169.3984"/><line style="stroke: #A80036; stroke-width: 1.0;" x1="610" x2="610" y1="169.3984" y2="311.9297"/><line style="stroke: #A80036; stroke-width: 1.0;" x1="620" x2="620" y1="169.3984" y2="311.9297"/><rect fill="#FFFFFF" filter="url(#f1trpczjpca2ce)" height="29.1328" style="stroke: #FFFFFF; stroke-width: 1.0;" width="10" x="610" y="339.9297"/><line style="stroke: #A80036; stroke-width: 1.0;" x1="610" x2="610" y1="339.9297" y2="369.0625"/><line style="stroke: #A80036; stroke-width: 1.0;" x1="620" x2="620" y1="339.9297" y2="369.0625"/><rect fill="#FFFFFF" filter="url(#f1trpczjpca2ce)" height="72.2656" style="stroke: #FFFFFF; stroke-width: 1.0;" width="10" x="610" y="397.0625"/><line style="stroke: #A80036; stroke-width: 1.0;" x1="610" x2="610" y1="397.0625" y2="469.3281"/><line style="stroke: #A80036; stroke-width: 1.0;" x1="620" x2="620" y1="397.0625" y2="469.3281"/><line style="stroke: #A80036; stroke-width: 1.0;" x1="36" x2="36" y1="44" y2="141.3984"/><line style="stroke: #A80036; stroke-width: 1.0; stroke-dasharray: 1.0,4.0;" x1="36" x2="36" y1="141.3984" y2="169.3984"/><line style="stroke: #A80036; stroke-width: 1.0;" x1="36" x2="36" y1="169.3984" y2="311.9297"/><line style="stroke: #A80036; stroke-width: 1.0; stroke-dasharray: 1.0,4.0;" x1="36" x2="36" y1="311.9297" y2="339.9297"/><line style="stroke: #A80036; stroke-width: 1.0;" x1="36" x2="36" y1="339.9297" y2="369.0625"/><line style="stroke: #A80036; stroke-width: 1.0; stroke-dasharray: 1.0,4.0;" x1="36" x2="36" y1="369.0625" y2="397.0625"/><line style="stroke: #A80036; stroke-width: 1.0;" x1="36" x2="36" y1="397.0625" y2="478.3281"/><line style="stroke: #A80036; stroke-width: 1.0;" x1="149" x2="149" y1="44" y2="141.3984"/><line style="stroke: #A80036; stroke-width: 1.0; stroke-dasharray: 1.0,4.0;" x1="149" x2="149" y1="141.3984" y2="169.3984"/><line style="stroke: #A80036; stroke-width: 1.0;" x1="149" x2="149" y1="169.3984" y2="311.9297"/><line style="stroke: #A80036; stroke-width: 1.0; stroke-dasharray: 1.0,4.0;" x1="149" x2="149" y1="311.9297" y2="339.9297"/><line style="stroke: #A80036; stroke-width: 1.0;" x1="149" x2="149" y1="339.9297" y2="369.0625"/><line style="stroke: #A80036; stroke-width: 1.0; stroke-dasharray: 1.0,4.0;" x1="149" x2="149" y1="369.0625" y2="397.0625"/><line style="stroke: #A80036; stroke-width: 1.0;" x1="149" x2="149" y1="397.0625" y2="478.3281"/><line style="stroke: #A80036; stroke-width: 1.0;" x1="313" x2="313" y1="44" y2="141.3984"/><line style="stroke: #A80036; stroke-width: 1.0; stroke-dasharray: 1.0,4.0;" x1="313" x2="313" y1="141.3984" y2="169.3984"/><line style="stroke: #A80036; stroke-width: 1.0;" x1="313" x2="313" y1="169.3984" y2="311.9297"/><line style="stroke: #A80036; stroke-width: 1.0; stroke-dasharray: 1.0,4.0;" x1="313" x2="313" y1="311.9297" y2="339.9297"/><line style="stroke: #A80036; stroke-width: 1.0;" x1="313" x2="313" y1="339.9297" y2="369.0625"/><line style="stroke: #A80036; stroke-width: 1.0; stroke-dasharray: 1.0,4.0;" x1="313" x2="313" y1="369.0625" y2="397.0625"/><line style="stroke: #A80036; stroke-width: 1.0;" x1="313" x2="313" y1="397.0625" y2="478.3281"/><line style="stroke: #A80036; stroke-width: 1.0;" x1="614.5" x2="614.5" y1="44" y2="141.3984"/><line style="stroke: #A80036; stroke-width: 1.0; stroke-dasharray: 1.0,4.0;" x1="614.5" x2="614.5" y1="141.3984" y2="169.3984"/><line style="stroke: #A80036; stroke-width: 1.0;" x1="614.5" x2="614.5" y1="169.3984" y2="311.9297"/><line style="stroke: #A80036; stroke-width: 1.0; stroke-dasharray: 1.0,4.0;" x1="614.5" x2="614.5" y1="311.9297" y2="339.9297"/><line style="stroke: #A80036; stroke-width: 1.0;" x1="614.5" x2="614.5" y1="339.9297" y2="369.0625"/><line style="stroke: #A80036; stroke-width: 1.0; stroke-dasharray: 1.0,4.0;" x1="614.5" x2="614.5" y1="369.0625" y2="397.0625"/><line style="stroke: #A80036; stroke-width: 1.0;" x1="614.5" x2="614.5" y1="397.0625" y2="478.3281"/><rect fill="#FEFECE" filter="url(#f1trpczjpca2ce)" height="30.2969" style="stroke: #A80036; stroke-width: 1.5;" width="52" x="8" y="8.7031"/><text fill="#000000" font-family="sans-serif" font-size="14" lengthAdjust="spacingAndGlyphs" textLength="38" x="15" y="28.6982">Intellij</text><rect fill="#FEFECE" filter="url(#f1trpczjpca2ce)" height="30.2969" style="stroke: #A80036; stroke-width: 1.5;" width="52" x="8" y="477.3281"/><text fill="#000000" font-family="sans-serif" font-size="14" lengthAdjust="spacingAndGlyphs" textLength="38" x="15" y="497.3232">Intellij</text><rect fill="#FEFECE" filter="url(#f1trpczjpca2ce)" height="36" style="stroke: #A80036; stroke-width: 1.5;" width="147" x="74" y="3"/><ellipse cx="92" cy="21" fill="#ADD1B2" rx="11" ry="11" style="stroke: #A80036; stroke-width: 1.0;"/><path d="M94.9688,26.6406 Q94.3906,26.9375 93.75,27.0781 Q93.1094,27.2344 92.4063,27.2344 Q89.9063,27.2344 88.5781,25.5938 Q87.2656,23.9375 87.2656,20.8125 Q87.2656,17.6875 88.5781,16.0313 Q89.9063,14.375 92.4063,14.375 Q93.1094,14.375 93.75,14.5313 Q94.4063,14.6875 94.9688,14.9844 L94.9688,17.7031 Q94.3438,17.125 93.75,16.8594 Q93.1563,16.5781 92.5313,16.5781 Q91.1875,16.5781 90.5,17.6563 Q89.8125,18.7188 89.8125,20.8125 Q89.8125,22.9063 90.5,23.9844 Q91.1875,25.0469 92.5313,25.0469 Q93.1563,25.0469 93.75,24.7813 Q94.3438,24.5 94.9688,23.9219 L94.9688,26.6406 Z "/><text fill="#000000" font-family="sans-serif" font-size="14" lengthAdjust="spacingAndGlyphs" textLength="105" x="109" y="24">DiagramsEditor</text><rect fill="#FEFECE" filter="url(#f1trpczjpca2ce)" height="36" style="stroke: #A80036; stroke-width: 1.5;" width="147" x="74" y="477.3281"/><ellipse cx="92" cy="495.3281" fill="#ADD1B2" rx="11" ry="11" style="stroke: #A80036; stroke-width: 1.0;"/><path d="M94.9688,500.9688 Q94.3906,501.2656 93.75,501.4063 Q93.1094,501.5625 92.4063,501.5625 Q89.9063,501.5625 88.5781,499.9219 Q87.2656,498.2656 87.2656,495.1406 Q87.2656,492.0156 88.5781,490.3594 Q89.9063,488.7031 92.4063,488.7031 Q93.1094,488.7031 93.75,488.8594 Q94.4063,489.0156 94.9688,489.3125 L94.9688,492.0313 Q94.3438,491.4531 93.75,491.1875 Q93.1563,490.9063 92.5313,490.9063 Q91.1875,490.9063 90.5,491.9844 Q89.8125,493.0469 89.8125,495.1406 Q89.8125,497.2344 90.5,498.3125 Q91.1875,499.375 92.5313,499.375 Q93.1563,499.375 93.75,499.1094 Q94.3438,498.8281 94.9688,498.25 L94.9688,500.9688 Z "/><text fill="#000000" font-family="sans-serif" font-size="14" lengthAdjust="spacingAndGlyphs" textLength="105" x="109" y="498.3281">DiagramsEditor</text><rect fill="#FEFECE" filter="url(#f1trpczjpca2ce)" height="36" style="stroke: #A80036; stroke-width: 1.5;" width="152" x="235" y="3"/><ellipse cx="253" cy="21" fill="#ADD1B2" rx="11" ry="11" style="stroke: #A80036; stroke-width: 1.0;"/><path d="M255.9688,26.6406 Q255.3906,26.9375 254.75,27.0781 Q254.1094,27.2344 253.4063,27.2344 Q250.9063,27.2344 249.5781,25.5938 Q248.2656,23.9375 248.2656,20.8125 Q248.2656,17.6875 249.5781,16.0313 Q250.9063,14.375 253.4063,14.375 Q254.1094,14.375 254.75,14.5313 Q255.4063,14.6875 255.9688,14.9844 L255.9688,17.7031 Q255.3438,17.125 254.75,16.8594 Q254.1563,16.5781 253.5313,16.5781 Q252.1875,16.5781 251.5,17.6563 Q250.8125,18.7188 250.8125,20.8125 Q250.8125,22.9063 251.5,23.9844 Q252.1875,25.0469 253.5313,25.0469 Q254.1563,25.0469 254.75,24.7813 Q255.3438,24.5 255.9688,23.9219 L255.9688,26.6406 Z "/><text fill="#000000" font-family="sans-serif" font-size="14" lengthAdjust="spacingAndGlyphs" textLength="110" x="270" y="24">DrawioWebView</text><rect fill="#FEFECE" filter="url(#f1trpczjpca2ce)" height="36" style="stroke: #A80036; stroke-width: 1.5;" width="152" x="235" y="477.3281"/><ellipse cx="253" cy="495.3281" fill="#ADD1B2" rx="11" ry="11" style="stroke: #A80036; stroke-width: 1.0;"/><path d="M255.9688,500.9688 Q255.3906,501.2656 254.75,501.4063 Q254.1094,501.5625 253.4063,501.5625 Q250.9063,501.5625 249.5781,499.9219 Q248.2656,498.2656 248.2656,495.1406 Q248.2656,492.0156 249.5781,490.3594 Q250.9063,488.7031 253.4063,488.7031 Q254.1094,488.7031 254.75,488.8594 Q255.4063,489.0156 255.9688,489.3125 L255.9688,492.0313 Q255.3438,491.4531 254.75,491.1875 Q254.1563,490.9063 253.5313,490.9063 Q252.1875,490.9063 251.5,491.9844 Q250.8125,493.0469 250.8125,495.1406 Q250.8125,497.2344 251.5,498.3125 Q252.1875,499.375 253.5313,499.375 Q254.1563,499.375 254.75,499.1094 Q255.3438,498.8281 255.9688,498.25 L255.9688,500.9688 Z "/><text fill="#000000" font-family="sans-serif" font-size="14" lengthAdjust="spacingAndGlyphs" textLength="110" x="270" y="498.3281">DrawioWebView</text><rect fill="#FEFECE" filter="url(#f1trpczjpca2ce)" height="30.2969" style="stroke: #A80036; stroke-width: 1.5;" width="59" x="583.5" y="8.7031"/><text fill="#000000" font-family="sans-serif" font-size="14" lengthAdjust="spacingAndGlyphs" textLength="45" x="590.5" y="28.6982">drawio</text><rect fill="#FEFECE" filter="url(#f1trpczjpca2ce)" height="30.2969" style="stroke: #A80036; stroke-width: 1.5;" width="59" x="583.5" y="477.3281"/><text fill="#000000" font-family="sans-serif" font-size="14" lengthAdjust="spacingAndGlyphs" textLength="45" x="590.5" y="497.3232">drawio</text><rect fill="#FFFFFF" filter="url(#f1trpczjpca2ce)" height="87.3984" style="stroke: #FFFFFF; stroke-width: 1.0;" width="10" x="31" y="54"/><line style="stroke: #A80036; stroke-width: 1.0;" x1="31" x2="31" y1="54" y2="141.3984"/><line style="stroke: #A80036; stroke-width: 1.0;" x1="41" x2="41" y1="54" y2="141.3984"/><line style="stroke: #A80036; stroke-width: 1.0;" x1="31" x2="41" y1="54" y2="54"/><rect fill="#FFFFFF" filter="url(#f1trpczjpca2ce)" height="142.5313" style="stroke: #FFFFFF; stroke-width: 1.0;" width="10" x="31" y="169.3984"/><line style="stroke: #A80036; stroke-width: 1.0;" x1="31" x2="31" y1="169.3984" y2="311.9297"/><line style="stroke: #A80036; stroke-width: 1.0;" x1="41" x2="41" y1="169.3984" y2="311.9297"/><rect fill="#FFFFFF" filter="url(#f1trpczjpca2ce)" height="29.1328" style="stroke: #FFFFFF; stroke-width: 1.0;" width="10" x="31" y="339.9297"/><line style="stroke: #A80036; stroke-width: 1.0;" x1="31" x2="31" y1="339.9297" y2="369.0625"/><line style="stroke: #A80036; stroke-width: 1.0;" x1="41" x2="41" y1="339.9297" y2="369.0625"/><rect fill="#FFFFFF" filter="url(#f1trpczjpca2ce)" height="72.2656" style="stroke: #FFFFFF; stroke-width: 1.0;" width="10" x="31" y="397.0625"/><line style="stroke: #A80036; stroke-width: 1.0;" x1="31" x2="31" y1="397.0625" y2="469.3281"/><line style="stroke: #A80036; stroke-width: 1.0;" x1="41" x2="41" y1="397.0625" y2="469.3281"/><rect fill="#FFFFFF" filter="url(#f1trpczjpca2ce)" height="66.3984" style="stroke: #FFFFFF; stroke-width: 1.0;" width="10" x="144.5" y="75"/><line style="stroke: #A80036; stroke-width: 1.0;" x1="144.5" x2="144.5" y1="75" y2="141.3984"/><line style="stroke: #A80036; stroke-width: 1.0;" x1="154.5" x2="154.5" y1="75" y2="141.3984"/><line style="stroke: #A80036; stroke-width: 1.0;" x1="144.5" x2="154.5" y1="75" y2="75"/><rect fill="#FFFFFF" filter="url(#f1trpczjpca2ce)" height="142.5313" style="stroke: #FFFFFF; stroke-width: 1.0;" width="10" x="144.5" y="169.3984"/><line style="stroke: #A80036; stroke-width: 1.0;" x1="144.5" x2="144.5" y1="169.3984" y2="311.9297"/><line style="stroke: #A80036; stroke-width: 1.0;" x1="154.5" x2="154.5" y1="169.3984" y2="311.9297"/><rect fill="#FFFFFF" filter="url(#f1trpczjpca2ce)" height="29.1328" style="stroke: #FFFFFF; stroke-width: 1.0;" width="10" x="144.5" y="339.9297"/><line style="stroke: #A80036; stroke-width: 1.0;" x1="144.5" x2="144.5" y1="339.9297" y2="369.0625"/><line style="stroke: #A80036; stroke-width: 1.0;" x1="154.5" x2="154.5" y1="339.9297" y2="369.0625"/><rect fill="#FFFFFF" filter="url(#f1trpczjpca2ce)" height="72.2656" style="stroke: #FFFFFF; stroke-width: 1.0;" width="10" x="144.5" y="397.0625"/><line style="stroke: #A80036; stroke-width: 1.0;" x1="144.5" x2="144.5" y1="397.0625" y2="469.3281"/><line style="stroke: #A80036; stroke-width: 1.0;" x1="154.5" x2="154.5" y1="397.0625" y2="469.3281"/><rect fill="#FFFFFF" filter="url(#f1trpczjpca2ce)" height="37.2656" style="stroke: #FFFFFF; stroke-width: 1.0;" width="10" x="308" y="104.1328"/><line style="stroke: #A80036; stroke-width: 1.0;" x1="308" x2="308" y1="104.1328" y2="141.3984"/><line style="stroke: #A80036; stroke-width: 1.0;" x1="318" x2="318" y1="104.1328" y2="141.3984"/><line style="stroke: #A80036; stroke-width: 1.0;" x1="308" x2="318" y1="104.1328" y2="104.1328"/><rect fill="#FFFFFF" filter="url(#f1trpczjpca2ce)" height="142.5313" style="stroke: #FFFFFF; stroke-width: 1.0;" width="10" x="308" y="169.3984"/><line style="stroke: #A80036; stroke-width: 1.0;" x1="308" x2="308" y1="169.3984" y2="311.9297"/><line style="stroke: #A80036; stroke-width: 1.0;" x1="318" x2="318" y1="169.3984" y2="311.9297"/><rect fill="#FFFFFF" filter="url(#f1trpczjpca2ce)" height="29.1328" style="stroke: #FFFFFF; stroke-width: 1.0;" width="10" x="308" y="339.9297"/><line style="stroke: #A80036; stroke-width: 1.0;" x1="308" x2="308" y1="339.9297" y2="369.0625"/><line style="stroke: #A80036; stroke-width: 1.0;" x1="318" x2="318" y1="339.9297" y2="369.0625"/><rect fill="#FFFFFF" filter="url(#f1trpczjpca2ce)" height="72.2656" style="stroke: #FFFFFF; stroke-width: 1.0;" width="10" x="308" y="397.0625"/><line style="stroke: #A80036; stroke-width: 1.0;" x1="308" x2="308" y1="397.0625" y2="469.3281"/><line style="stroke: #A80036; stroke-width: 1.0;" x1="318" x2="318" y1="397.0625" y2="469.3281"/><rect fill="#FFFFFF" filter="url(#f1trpczjpca2ce)" height="113.3984" style="stroke: #A80036; stroke-width: 1.0;" width="10" x="313" y="190.3984"/><rect fill="#FFFFFF" filter="url(#f1trpczjpca2ce)" height="35.1328" style="stroke: #A80036; stroke-width: 1.0;" width="10" x="313" y="418.0625"/><rect fill="#FFFFFF" filter="url(#f1trpczjpca2ce)" height="8.1328" style="stroke: #FFFFFF; stroke-width: 1.0;" width="10" x="610" y="133.2656"/><line style="stroke: #A80036; stroke-width: 1.0;" x1="610" x2="610" y1="133.2656" y2="141.3984"/><line style="stroke: #A80036; stroke-width: 1.0;" x1="620" x2="620" y1="133.2656" y2="141.3984"/><line style="stroke: #A80036; stroke-width: 1.0;" x1="610" x2="620" y1="133.2656" y2="133.2656"/><rect fill="#FFFFFF" filter="url(#f1trpczjpca2ce)" height="142.5313" style="stroke: #FFFFFF; stroke-width: 1.0;" width="10" x="610" y="169.3984"/><line style="stroke: #A80036; stroke-width: 1.0;" x1="610" x2="610" y1="169.3984" y2="311.9297"/><line style="stroke: #A80036; stroke-width: 1.0;" x1="620" x2="620" y1="169.3984" y2="311.9297"/><rect fill="#FFFFFF" filter="url(#f1trpczjpca2ce)" height="29.1328" style="stroke: #FFFFFF; stroke-width: 1.0;" width="10" x="610" y="339.9297"/><line style="stroke: #A80036; stroke-width: 1.0;" x1="610" x2="610" y1="339.9297" y2="369.0625"/><line style="stroke: #A80036; stroke-width: 1.0;" x1="620" x2="620" y1="339.9297" y2="369.0625"/><rect fill="#FFFFFF" filter="url(#f1trpczjpca2ce)" height="72.2656" style="stroke: #FFFFFF; stroke-width: 1.0;" width="10" x="610" y="397.0625"/><line style="stroke: #A80036; stroke-width: 1.0;" x1="610" x2="610" y1="397.0625" y2="469.3281"/><line style="stroke: #A80036; stroke-width: 1.0;" x1="620" x2="620" y1="397.0625" y2="469.3281"/><polygon fill="#A80036" points="132.5,71,142.5,75,132.5,79,136.5,75" style="stroke: #A80036; stroke-width: 1.0;"/><line style="stroke: #A80036; stroke-width: 1.0;" x1="41" x2="138.5" y1="75" y2="75"/><text fill="#000000" font-family="sans-serif" font-size="13" lengthAdjust="spacingAndGlyphs" textLength="68" x="48" y="70.0669">instantiate</text><polygon fill="#A80036" points="296,100.1328,306,104.1328,296,108.1328,300,104.1328" style="stroke: #A80036; stroke-width: 1.0;"/><line style="stroke: #A80036; stroke-width: 1.0;" x1="154.5" x2="302" y1="104.1328" y2="104.1328"/><text fill="#000000" font-family="sans-serif" font-size="13" lengthAdjust="spacingAndGlyphs" textLength="68" x="161.5" y="99.1997">instantiate</text><polygon fill="#A80036" points="598,129.2656,608,133.2656,598,137.2656,602,133.2656" style="stroke: #A80036; stroke-width: 1.0;"/><line style="stroke: #A80036; stroke-width: 1.0;" x1="318" x2="604" y1="133.2656" y2="133.2656"/><text fill="#000000" font-family="sans-serif" font-size="13" lengthAdjust="spacingAndGlyphs" textLength="27" x="325" y="128.3325">load</text><polygon fill="#A80036" points="334,186.3984,324,190.3984,334,194.3984,330,190.3984" style="stroke: #A80036; stroke-width: 1.0;"/><line style="stroke: #A80036; stroke-width: 1.0;" x1="328" x2="609" y1="190.3984" y2="190.3984"/><text fill="#000000" font-family="sans-serif" font-size="13" lengthAdjust="spacingAndGlyphs" textLength="217" x="340" y="185.4653">jsRequestHandler(configureEvent)</text><line style="stroke: #A80036; stroke-width: 1.0;" x1="323" x2="365" y1="219.6641" y2="219.6641"/><line style="stroke: #A80036; stroke-width: 1.0;" x1="365" x2="365" y1="219.6641" y2="232.6641"/><line style="stroke: #A80036; stroke-width: 1.0;" x1="324" x2="365" y1="232.6641" y2="232.6641"/><polygon fill="#A80036" points="334,228.6641,324,232.6641,334,236.6641,330,232.6641" style="stroke: #A80036; stroke-width: 1.0;"/><text fill="#000000" font-family="sans-serif" font-size="13" lengthAdjust="spacingAndGlyphs" textLength="184" x="330" y="214.5981">handleEvent(configureEvent)</text><line style="stroke: #A80036; stroke-width: 1.0;" x1="323" x2="365" y1="261.7969" y2="261.7969"/><line style="stroke: #A80036; stroke-width: 1.0;" x1="365" x2="365" y1="261.7969" y2="274.7969"/><line style="stroke: #A80036; stroke-width: 1.0;" x1="324" x2="365" y1="274.7969" y2="274.7969"/><polygon fill="#A80036" points="334,270.7969,324,274.7969,334,278.7969,330,274.7969" style="stroke: #A80036; stroke-width: 1.0;"/><text fill="#000000" font-family="sans-serif" font-size="13" lengthAdjust="spacingAndGlyphs" textLength="181" x="330" y="256.731">sendMessage(DrawioConfig)</text><polygon fill="#A80036" points="598,299.7969,608,303.7969,598,307.7969,602,303.7969" style="stroke: #A80036; stroke-width: 1.0;"/><line style="stroke: #A80036; stroke-width: 1.0; stroke-dasharray: 2.0,2.0;" x1="318" x2="604" y1="303.7969" y2="303.7969"/><text fill="#000000" font-family="sans-serif" font-size="13" lengthAdjust="spacingAndGlyphs" textLength="263" x="325" y="298.8638">processMessageFromHost(DrawioConfig)</text><line style="stroke: #A80036; stroke-width: 2.0;" x1="324" x2="334" y1="355.9297" y2="365.9297"/><line style="stroke: #A80036; stroke-width: 2.0;" x1="324" x2="334" y1="365.9297" y2="355.9297"/><line style="stroke: #A80036; stroke-width: 1.0;" x1="330" x2="609" y1="360.9297" y2="360.9297"/><text fill="#000000" font-family="sans-serif" font-size="13" lengthAdjust="spacingAndGlyphs" textLength="217" x="335" y="355.9966">jsRequestHandler(initializedEvent)</text><polygon fill="#A80036" points="334,414.0625,324,418.0625,334,422.0625,330,418.0625" style="stroke: #A80036; stroke-width: 1.0;"/><line style="stroke: #A80036; stroke-width: 1.0;" x1="328" x2="609" y1="418.0625" y2="418.0625"/><text fill="#000000" font-family="sans-serif" font-size="13" lengthAdjust="spacingAndGlyphs" textLength="185" x="340" y="413.1294">jsRequestHandler(loadEvent)</text><line style="stroke: #A80036; stroke-width: 1.0;" x1="323" x2="365" y1="452.3281" y2="452.3281"/><line style="stroke: #A80036; stroke-width: 1.0;" x1="365" x2="365" y1="452.3281" y2="465.3281"/><line style="stroke: #A80036; stroke-width: 1.0;" x1="330" x2="365" y1="465.3281" y2="465.3281"/><text fill="#000000" font-family="sans-serif" font-size="13" lengthAdjust="spacingAndGlyphs" textLength="152" x="330" y="447.2622">handleEvent(loadEvent)</text><!--
@startuml
participant "Intellij" as intellij
participant DiagramsEditor as editor <<(C,#ADD1B2)>>
participant DrawioWebView as webview <<(C,#ADD1B2)>>
activate intellij
  intellij -> editor : instantiate
    activate editor
    editor -> webview : instantiate
    activate webview
    webview -> drawio : load
    activate drawio
...
drawio -> webview : jsRequestHandler(configureEvent)
    activate webview
    webview -> webview : handleEvent(configureEvent)
    webview -> webview : sendMessage(DrawioConfig)
    webview - -> drawio : processMessageFromHost(DrawioConfig)
    deactivate webview
...
drawio -x webview : jsRequestHandler(initializedEvent)
...
drawio -> webview : jsRequestHandler(loadEvent)
    activate webview
    webview -x webview : handleEvent(loadEvent)
    deactivate webview


@enduml

PlantUML version 1.2018.01(Sun Jan 28 19:08:22 CET 2018)
(APACHE source distribution)
Java Runtime: OpenJDK Runtime Environment
JVM: OpenJDK 64-Bit Server VM
Java Version: 1.8.0_265-b01
Operating System: Linux
OS Version: 4.19.104-microsoft-standard
Default Encoding: UTF-8
Language: en
Country: US
--></g></svg>