<?xml version="1.0" encoding="UTF-8" standalone="no"?><svg xmlns="http://www.w3.org/2000/svg" xmlns:xlink="http://www.w3.org/1999/xlink" contentScriptType="application/ecmascript" contentStyleType="text/css" height="588px" preserveAspectRatio="none" style="width:684px;height:588px;" version="1.1" viewBox="0 0 684 588" width="684px" zoomAndPan="magnify"><defs><filter height="300%" id="fd5wc3lm9vnq3" width="300%" x="-1" y="-1"><feGaussianBlur result="blurOut" stdDeviation="2.0"/><feColorMatrix in="blurOut" result="blurOut2" type="matrix" values="0 0 0 0 0 0 0 0 0 0 0 0 0 0 0 0 0 0 .4 0"/><feOffset dx="4.0" dy="4.0" in="blurOut2" result="blurOut3"/><feBlend in="SourceGraphic" in2="blurOut3" mode="normal"/></filter></defs><g><rect fill="#FFFFFF" filter="url(#fd5wc3lm9vnq3)" height="402.1328" style="stroke: #FFFFFF; stroke-width: 1.0;" width="10" x="182.5" y="75.2969"/><line style="stroke: #A80036; stroke-width: 1.0;" x1="182.5" x2="182.5" y1="75.2969" y2="477.4297"/><line style="stroke: #A80036; stroke-width: 1.0;" x1="192.5" x2="192.5" y1="75.2969" y2="477.4297"/><line style="stroke: #A80036; stroke-width: 1.0;" x1="182.5" x2="192.5" y1="75.2969" y2="75.2969"/><rect fill="#FFFFFF" filter="url(#fd5wc3lm9vnq3)" height="1" style="stroke: #FFFFFF; stroke-width: 1.0;" width="10" x="182.5" y="505.4297"/><line style="stroke: #A80036; stroke-width: 1.0;" x1="182.5" x2="182.5" y1="505.4297" y2="506.4297"/><line style="stroke: #A80036; stroke-width: 1.0;" x1="192.5" x2="192.5" y1="505.4297" y2="506.4297"/><rect fill="#FFFFFF" filter="url(#fd5wc3lm9vnq3)" height="29" style="stroke: #A80036; stroke-width: 1.0;" width="10" x="187.5" y="246.8281"/><rect fill="#FFFFFF" filter="url(#fd5wc3lm9vnq3)" height="402.1328" style="stroke: #FFFFFF; stroke-width: 1.0;" width="10" x="346" y="75.2969"/><line style="stroke: #A80036; stroke-width: 1.0;" x1="346" x2="346" y1="75.2969" y2="477.4297"/><line style="stroke: #A80036; stroke-width: 1.0;" x1="356" x2="356" y1="75.2969" y2="477.4297"/><line style="stroke: #A80036; stroke-width: 1.0;" x1="346" x2="356" y1="75.2969" y2="75.2969"/><rect fill="#FFFFFF" filter="url(#fd5wc3lm9vnq3)" height="1" style="stroke: #FFFFFF; stroke-width: 1.0;" width="10" x="346" y="505.4297"/><line style="stroke: #A80036; stroke-width: 1.0;" x1="346" x2="346" y1="505.4297" y2="506.4297"/><line style="stroke: #A80036; stroke-width: 1.0;" x1="356" x2="356" y1="505.4297" y2="506.4297"/><rect fill="#FFFFFF" filter="url(#fd5wc3lm9vnq3)" height="353.1328" style="stroke: #FFFFFF; stroke-width: 1.0;" width="10" x="351" y="124.2969"/><line style="stroke: #A80036; stroke-width: 1.0;" x1="351" x2="351" y1="124.2969" y2="477.4297"/><line style="stroke: #A80036; stroke-width: 1.0;" x1="361" x2="361" y1="124.2969" y2="477.4297"/><line style="stroke: #A80036; stroke-width: 1.0;" x1="351" x2="361" y1="124.2969" y2="124.2969"/><rect fill="#FFFFFF" filter="url(#fd5wc3lm9vnq3)" height="1" style="stroke: #FFFFFF; stroke-width: 1.0;" width="10" x="351" y="505.4297"/><line style="stroke: #A80036; stroke-width: 1.0;" x1="351" x2="351" y1="505.4297" y2="506.4297"/><line style="stroke: #A80036; stroke-width: 1.0;" x1="361" x2="361" y1="505.4297" y2="506.4297"/><rect fill="#FFFFFF" filter="url(#fd5wc3lm9vnq3)" height="402.1328" style="stroke: #FFFFFF; stroke-width: 1.0;" width="10" x="626" y="75.2969"/><line style="stroke: #A80036; stroke-width: 1.0;" x1="626" x2="626" y1="75.2969" y2="477.4297"/><line style="stroke: #A80036; stroke-width: 1.0;" x1="636" x2="636" y1="75.2969" y2="477.4297"/><line style="stroke: #A80036; stroke-width: 1.0;" x1="626" x2="636" y1="75.2969" y2="75.2969"/><rect fill="#FFFFFF" filter="url(#fd5wc3lm9vnq3)" height="1" style="stroke: #FFFFFF; stroke-width: 1.0;" width="10" x="626" y="505.4297"/><line style="stroke: #A80036; stroke-width: 1.0;" x1="626" x2="626" y1="505.4297" y2="506.4297"/><line style="stroke: #A80036; stroke-width: 1.0;" x1="636" x2="636" y1="505.4297" y2="506.4297"/><rect fill="#FFFFFF" filter="url(#fd5wc3lm9vnq3)" height="246.7344" style="stroke: #000000; stroke-width: 2.0;" width="659.5" x="13" y="223.6953"/><rect fill="#FFFFFF" height="186.4688" style="stroke: none; stroke-width: 1.0;" width="659.5" x="13" y="283.9609"/><line style="stroke: #A80036; stroke-width: 1.0;" x1="62" x2="62" y1="65.2969" y2="75.2969"/><line style="stroke: #A80036; stroke-width: 1.0; stroke-dasharray: 1.0,4.0;" x1="62" x2="62" y1="75.2969" y2="103.2969"/><line style="stroke: #A80036; stroke-width: 1.0;" x1="62" x2="62" y1="103.2969" y2="477.4297"/><line style="stroke: #A80036; stroke-width: 1.0; stroke-dasharray: 1.0,4.0;" x1="62" x2="62" y1="477.4297" y2="505.4297"/><line style="stroke: #A80036; stroke-width: 1.0;" x1="62" x2="62" y1="505.4297" y2="515.4297"/><line style="stroke: #A80036; stroke-width: 1.0;" x1="187" x2="187" y1="65.2969" y2="75.2969"/><line style="stroke: #A80036; stroke-width: 1.0; stroke-dasharray: 1.0,4.0;" x1="187" x2="187" y1="75.2969" y2="103.2969"/><line style="stroke: #A80036; stroke-width: 1.0;" x1="187" x2="187" y1="103.2969" y2="477.4297"/><line style="stroke: #A80036; stroke-width: 1.0; stroke-dasharray: 1.0,4.0;" x1="187" x2="187" y1="477.4297" y2="505.4297"/><line style="stroke: #A80036; stroke-width: 1.0;" x1="187" x2="187" y1="505.4297" y2="515.4297"/><line style="stroke: #A80036; stroke-width: 1.0;" x1="351" x2="351" y1="65.2969" y2="75.2969"/><line style="stroke: #A80036; stroke-width: 1.0; stroke-dasharray: 1.0,4.0;" x1="351" x2="351" y1="75.2969" y2="103.2969"/><line style="stroke: #A80036; stroke-width: 1.0;" x1="351" x2="351" y1="103.2969" y2="477.4297"/><line style="stroke: #A80036; stroke-width: 1.0; stroke-dasharray: 1.0,4.0;" x1="351" x2="351" y1="477.4297" y2="505.4297"/><line style="stroke: #A80036; stroke-width: 1.0;" x1="351" x2="351" y1="505.4297" y2="515.4297"/><line style="stroke: #A80036; stroke-width: 1.0;" x1="630.5" x2="630.5" y1="65.2969" y2="75.2969"/><line style="stroke: #A80036; stroke-width: 1.0; stroke-dasharray: 1.0,4.0;" x1="630.5" x2="630.5" y1="75.2969" y2="103.2969"/><line style="stroke: #A80036; stroke-width: 1.0;" x1="630.5" x2="630.5" y1="103.2969" y2="477.4297"/><line style="stroke: #A80036; stroke-width: 1.0; stroke-dasharray: 1.0,4.0;" x1="630.5" x2="630.5" y1="477.4297" y2="505.4297"/><line style="stroke: #A80036; stroke-width: 1.0;" x1="630.5" x2="630.5" y1="505.4297" y2="515.4297"/><text fill="#000000" font-family="sans-serif" font-size="14" lengthAdjust="spacingAndGlyphs" textLength="73" x="23" y="61.9951">Filesystem</text><path d="M44.5,13 C44.5,3 62.5,3 62.5,3 C62.5,3 80.5,3 80.5,13 L80.5,39 C80.5,49 62.5,49 62.5,49 C62.5,49 44.5,49 44.5,39 L44.5,13 " fill="#FEFECE" filter="url(#fd5wc3lm9vnq3)" style="stroke: #000000; stroke-width: 1.5;"/><path d="M44.5,13 C44.5,23 62.5,23 62.5,23 C62.5,23 80.5,23 80.5,13 " fill="none" style="stroke: #000000; stroke-width: 1.5;"/><text fill="#000000" font-family="sans-serif" font-size="14" lengthAdjust="spacingAndGlyphs" textLength="73" x="23" y="527.4248">Filesystem</text><path d="M44.5,540.7266 C44.5,530.7266 62.5,530.7266 62.5,530.7266 C62.5,530.7266 80.5,530.7266 80.5,540.7266 L80.5,566.7266 C80.5,576.7266 62.5,576.7266 62.5,576.7266 C62.5,576.7266 44.5,576.7266 44.5,566.7266 L44.5,540.7266 " fill="#FEFECE" filter="url(#fd5wc3lm9vnq3)" style="stroke: #000000; stroke-width: 1.5;"/><path d="M44.5,540.7266 C44.5,550.7266 62.5,550.7266 62.5,550.7266 C62.5,550.7266 80.5,550.7266 80.5,540.7266 " fill="none" style="stroke: #000000; stroke-width: 1.5;"/><rect fill="#FEFECE" filter="url(#fd5wc3lm9vnq3)" height="36" style="stroke: #A80036; stroke-width: 1.5;" width="147" x="112" y="24.2969"/><ellipse cx="130" cy="42.2969" fill="#ADD1B2" rx="11" ry="11" style="stroke: #A80036; stroke-width: 1.0;"/><path d="M132.9688,47.9375 Q132.3906,48.2344 131.75,48.375 Q131.1094,48.5313 130.4063,48.5313 Q127.9063,48.5313 126.5781,46.8906 Q125.2656,45.2344 125.2656,42.1094 Q125.2656,38.9844 126.5781,37.3281 Q127.9063,35.6719 130.4063,35.6719 Q131.1094,35.6719 131.75,35.8281 Q132.4063,35.9844 132.9688,36.2813 L132.9688,39 Q132.3438,38.4219 131.75,38.1563 Q131.1563,37.875 130.5313,37.875 Q129.1875,37.875 128.5,38.9531 Q127.8125,40.0156 127.8125,42.1094 Q127.8125,44.2031 128.5,45.2813 Q129.1875,46.3438 130.5313,46.3438 Q131.1563,46.3438 131.75,46.0781 Q132.3438,45.7969 132.9688,45.2188 L132.9688,47.9375 Z "/><text fill="#000000" font-family="sans-serif" font-size="14" lengthAdjust="spacingAndGlyphs" textLength="105" x="147" y="45.2969">DiagramsEditor</text><rect fill="#FEFECE" filter="url(#fd5wc3lm9vnq3)" height="36" style="stroke: #A80036; stroke-width: 1.5;" width="147" x="112" y="514.4297"/><ellipse cx="130" cy="532.4297" fill="#ADD1B2" rx="11" ry="11" style="stroke: #A80036; stroke-width: 1.0;"/><path d="M132.9688,538.0703 Q132.3906,538.3672 131.75,538.5078 Q131.1094,538.6641 130.4063,538.6641 Q127.9063,538.6641 126.5781,537.0234 Q125.2656,535.3672 125.2656,532.2422 Q125.2656,529.1172 126.5781,527.4609 Q127.9063,525.8047 130.4063,525.8047 Q131.1094,525.8047 131.75,525.9609 Q132.4063,526.1172 132.9688,526.4141 L132.9688,529.1328 Q132.3438,528.5547 131.75,528.2891 Q131.1563,528.0078 130.5313,528.0078 Q129.1875,528.0078 128.5,529.0859 Q127.8125,530.1484 127.8125,532.2422 Q127.8125,534.3359 128.5,535.4141 Q129.1875,536.4766 130.5313,536.4766 Q131.1563,536.4766 131.75,536.2109 Q132.3438,535.9297 132.9688,535.3516 L132.9688,538.0703 Z "/><text fill="#000000" font-family="sans-serif" font-size="14" lengthAdjust="spacingAndGlyphs" textLength="105" x="147" y="535.4297">DiagramsEditor</text><rect fill="#FEFECE" filter="url(#fd5wc3lm9vnq3)" height="36" style="stroke: #A80036; stroke-width: 1.5;" width="152" x="273" y="24.2969"/><ellipse cx="291" cy="42.2969" fill="#ADD1B2" rx="11" ry="11" style="stroke: #A80036; stroke-width: 1.0;"/><path d="M293.9688,47.9375 Q293.3906,48.2344 292.75,48.375 Q292.1094,48.5313 291.4063,48.5313 Q288.9063,48.5313 287.5781,46.8906 Q286.2656,45.2344 286.2656,42.1094 Q286.2656,38.9844 287.5781,37.3281 Q288.9063,35.6719 291.4063,35.6719 Q292.1094,35.6719 292.75,35.8281 Q293.4063,35.9844 293.9688,36.2813 L293.9688,39 Q293.3438,38.4219 292.75,38.1563 Q292.1563,37.875 291.5313,37.875 Q290.1875,37.875 289.5,38.9531 Q288.8125,40.0156 288.8125,42.1094 Q288.8125,44.2031 289.5,45.2813 Q290.1875,46.3438 291.5313,46.3438 Q292.1563,46.3438 292.75,46.0781 Q293.3438,45.7969 293.9688,45.2188 L293.9688,47.9375 Z "/><text fill="#000000" font-family="sans-serif" font-size="14" lengthAdjust="spacingAndGlyphs" textLength="110" x="308" y="45.2969">DrawioWebView</text><rect fill="#FEFECE" filter="url(#fd5wc3lm9vnq3)" height="36" style="stroke: #A80036; stroke-width: 1.5;" width="152" x="273" y="514.4297"/><ellipse cx="291" cy="532.4297" fill="#ADD1B2" rx="11" ry="11" style="stroke: #A80036; stroke-width: 1.0;"/><path d="M293.9688,538.0703 Q293.3906,538.3672 292.75,538.5078 Q292.1094,538.6641 291.4063,538.6641 Q288.9063,538.6641 287.5781,537.0234 Q286.2656,535.3672 286.2656,532.2422 Q286.2656,529.1172 287.5781,527.4609 Q288.9063,525.8047 291.4063,525.8047 Q292.1094,525.8047 292.75,525.9609 Q293.4063,526.1172 293.9688,526.4141 L293.9688,529.1328 Q293.3438,528.5547 292.75,528.2891 Q292.1563,528.0078 291.5313,528.0078 Q290.1875,528.0078 289.5,529.0859 Q288.8125,530.1484 288.8125,532.2422 Q288.8125,534.3359 289.5,535.4141 Q290.1875,536.4766 291.5313,536.4766 Q292.1563,536.4766 292.75,536.2109 Q293.3438,535.9297 293.9688,535.3516 L293.9688,538.0703 Z "/><text fill="#000000" font-family="sans-serif" font-size="14" lengthAdjust="spacingAndGlyphs" textLength="110" x="308" y="535.4297">DrawioWebView</text><rect fill="#FEFECE" filter="url(#fd5wc3lm9vnq3)" height="30.2969" style="stroke: #A80036; stroke-width: 1.5;" width="59" x="599.5" y="30"/><text fill="#000000" font-family="sans-serif" font-size="14" lengthAdjust="spacingAndGlyphs" textLength="45" x="606.5" y="49.9951">drawio</text><rect fill="#FEFECE" filter="url(#fd5wc3lm9vnq3)" height="30.2969" style="stroke: #A80036; stroke-width: 1.5;" width="59" x="599.5" y="514.4297"/><text fill="#000000" font-family="sans-serif" font-size="14" lengthAdjust="spacingAndGlyphs" textLength="45" x="606.5" y="534.4248">drawio</text><rect fill="#FFFFFF" filter="url(#fd5wc3lm9vnq3)" height="402.1328" style="stroke: #FFFFFF; stroke-width: 1.0;" width="10" x="182.5" y="75.2969"/><line style="stroke: #A80036; stroke-width: 1.0;" x1="182.5" x2="182.5" y1="75.2969" y2="477.4297"/><line style="stroke: #A80036; stroke-width: 1.0;" x1="192.5" x2="192.5" y1="75.2969" y2="477.4297"/><line style="stroke: #A80036; stroke-width: 1.0;" x1="182.5" x2="192.5" y1="75.2969" y2="75.2969"/><rect fill="#FFFFFF" filter="url(#fd5wc3lm9vnq3)" height="1" style="stroke: #FFFFFF; stroke-width: 1.0;" width="10" x="182.5" y="505.4297"/><line style="stroke: #A80036; stroke-width: 1.0;" x1="182.5" x2="182.5" y1="505.4297" y2="506.4297"/><line style="stroke: #A80036; stroke-width: 1.0;" x1="192.5" x2="192.5" y1="505.4297" y2="506.4297"/><rect fill="#FFFFFF" filter="url(#fd5wc3lm9vnq3)" height="29" style="stroke: #A80036; stroke-width: 1.0;" width="10" x="187.5" y="246.8281"/><rect fill="#FFFFFF" filter="url(#fd5wc3lm9vnq3)" height="402.1328" style="stroke: #FFFFFF; stroke-width: 1.0;" width="10" x="346" y="75.2969"/><line style="stroke: #A80036; stroke-width: 1.0;" x1="346" x2="346" y1="75.2969" y2="477.4297"/><line style="stroke: #A80036; stroke-width: 1.0;" x1="356" x2="356" y1="75.2969" y2="477.4297"/><line style="stroke: #A80036; stroke-width: 1.0;" x1="346" x2="356" y1="75.2969" y2="75.2969"/><rect fill="#FFFFFF" filter="url(#fd5wc3lm9vnq3)" height="1" style="stroke: #FFFFFF; stroke-width: 1.0;" width="10" x="346" y="505.4297"/><line style="stroke: #A80036; stroke-width: 1.0;" x1="346" x2="346" y1="505.4297" y2="506.4297"/><line style="stroke: #A80036; stroke-width: 1.0;" x1="356" x2="356" y1="505.4297" y2="506.4297"/><rect fill="#FFFFFF" filter="url(#fd5wc3lm9vnq3)" height="353.1328" style="stroke: #FFFFFF; stroke-width: 1.0;" width="10" x="351" y="124.2969"/><line style="stroke: #A80036; stroke-width: 1.0;" x1="351" x2="351" y1="124.2969" y2="477.4297"/><line style="stroke: #A80036; stroke-width: 1.0;" x1="361" x2="361" y1="124.2969" y2="477.4297"/><line style="stroke: #A80036; stroke-width: 1.0;" x1="351" x2="361" y1="124.2969" y2="124.2969"/><rect fill="#FFFFFF" filter="url(#fd5wc3lm9vnq3)" height="1" style="stroke: #FFFFFF; stroke-width: 1.0;" width="10" x="351" y="505.4297"/><line style="stroke: #A80036; stroke-width: 1.0;" x1="351" x2="351" y1="505.4297" y2="506.4297"/><line style="stroke: #A80036; stroke-width: 1.0;" x1="361" x2="361" y1="505.4297" y2="506.4297"/><rect fill="#FFFFFF" filter="url(#fd5wc3lm9vnq3)" height="402.1328" style="stroke: #FFFFFF; stroke-width: 1.0;" width="10" x="626" y="75.2969"/><line style="stroke: #A80036; stroke-width: 1.0;" x1="626" x2="626" y1="75.2969" y2="477.4297"/><line style="stroke: #A80036; stroke-width: 1.0;" x1="636" x2="636" y1="75.2969" y2="477.4297"/><line style="stroke: #A80036; stroke-width: 1.0;" x1="626" x2="636" y1="75.2969" y2="75.2969"/><rect fill="#FFFFFF" filter="url(#fd5wc3lm9vnq3)" height="1" style="stroke: #FFFFFF; stroke-width: 1.0;" width="10" x="626" y="505.4297"/><line style="stroke: #A80036; stroke-width: 1.0;" x1="626" x2="626" y1="505.4297" y2="506.4297"/><line style="stroke: #A80036; stroke-width: 1.0;" x1="636" x2="636" y1="505.4297" y2="506.4297"/><polygon fill="#A80036" points="372,120.2969,362,124.2969,372,128.2969,368,124.2969" style="stroke: #A80036; stroke-width: 1.0;"/><line style="stroke: #A80036; stroke-width: 1.0;" x1="366" x2="625" y1="124.2969" y2="124.2969"/><text fill="#000000" font-family="sans-serif" font-size="13" lengthAdjust="spacingAndGlyphs" textLength="217" x="378" y="119.3638">jsRequestHandler(autosaveEvent)</text><line style="stroke: #A80036; stroke-width: 1.0;" x1="361" x2="403" y1="153.5625" y2="153.5625"/><line style="stroke: #A80036; stroke-width: 1.0;" x1="403" x2="403" y1="153.5625" y2="166.5625"/><line style="stroke: #A80036; stroke-width: 1.0;" x1="362" x2="403" y1="166.5625" y2="166.5625"/><polygon fill="#A80036" points="372,162.5625,362,166.5625,372,170.5625,368,166.5625" style="stroke: #A80036; stroke-width: 1.0;"/><text fill="#000000" font-family="sans-serif" font-size="13" lengthAdjust="spacingAndGlyphs" textLength="184" x="368" y="148.4966">handleEvent(autosaveEvent)</text><line style="stroke: #A80036; stroke-width: 1.0;" x1="361" x2="403" y1="195.6953" y2="195.6953"/><line style="stroke: #A80036; stroke-width: 1.0;" x1="403" x2="403" y1="195.6953" y2="208.6953"/><line style="stroke: #A80036; stroke-width: 1.0;" x1="362" x2="403" y1="208.6953" y2="208.6953"/><polygon fill="#A80036" points="372,204.6953,362,208.6953,372,212.6953,368,208.6953" style="stroke: #A80036; stroke-width: 1.0;"/><text fill="#000000" font-family="sans-serif" font-size="13" lengthAdjust="spacingAndGlyphs" textLength="178" x="368" y="190.6294">_xmlContent.set(event.xml)</text><path d="M13,223.6953 L77,223.6953 L77,230.6953 L67,240.6953 L13,240.6953 L13,223.6953 " fill="#EEEEEE" style="stroke: #000000; stroke-width: 1.0;"/><rect fill="none" height="246.7344" style="stroke: #000000; stroke-width: 2.0;" width="659.5" x="13" y="223.6953"/><text fill="#000000" font-family="sans-serif" font-size="13" font-weight="bold" lengthAdjust="spacingAndGlyphs" textLength="19" x="28" y="236.7622">alt</text><text fill="#000000" font-family="sans-serif" font-size="11" font-weight="bold" lengthAdjust="spacingAndGlyphs" textLength="179" x="92" y="235.9058">[filename.endsWith(".xml")]</text><polygon fill="#A80036" points="208.5,242.8281,198.5,246.8281,208.5,250.8281,204.5,246.8281" style="stroke: #A80036; stroke-width: 1.0;"/><line style="stroke: #A80036; stroke-width: 1.0;" x1="202.5" x2="350" y1="246.8281" y2="246.8281"/><polygon fill="#A80036" points="73.5,271.8281,63.5,275.8281,73.5,279.8281,69.5,275.8281" style="stroke: #A80036; stroke-width: 1.0;"/><line style="stroke: #A80036; stroke-width: 1.0;" x1="67.5" x2="181.5" y1="275.8281" y2="275.8281"/><text fill="#000000" font-family="sans-serif" font-size="13" lengthAdjust="spacingAndGlyphs" textLength="63" x="79.5" y="270.895">save(xml)</text><line style="stroke: #000000; stroke-width: 1.0; stroke-dasharray: 2.0,2.0;" x1="13" x2="672.5" y1="284.9609" y2="284.9609"/><text fill="#000000" font-family="sans-serif" font-size="11" font-weight="bold" lengthAdjust="spacingAndGlyphs" textLength="179" x="18" y="295.1714">[filename.endsWith(".svg")]</text><polygon fill="#A80036" points="339,315.7656,349,319.7656,339,323.7656,343,319.7656" style="stroke: #A80036; stroke-width: 1.0;"/><line style="stroke: #A80036; stroke-width: 1.0;" x1="192.5" x2="345" y1="319.7656" y2="319.7656"/><text fill="#000000" font-family="sans-serif" font-size="13" lengthAdjust="spacingAndGlyphs" textLength="75" x="199.5" y="314.8325">exportSvg()</text><line style="stroke: #A80036; stroke-width: 1.0;" x1="361" x2="403" y1="349.0313" y2="349.0313"/><line style="stroke: #A80036; stroke-width: 1.0;" x1="403" x2="403" y1="349.0313" y2="362.0313"/><line style="stroke: #A80036; stroke-width: 1.0;" x1="362" x2="403" y1="362.0313" y2="362.0313"/><polygon fill="#A80036" points="372,358.0313,362,362.0313,372,366.0313,368,362.0313" style="stroke: #A80036; stroke-width: 1.0;"/><text fill="#000000" font-family="sans-serif" font-size="13" lengthAdjust="spacingAndGlyphs" textLength="175" x="368" y="343.9653">sendMessage(exportEvent)</text><polygon fill="#A80036" points="614,387.0313,624,391.0313,614,395.0313,618,391.0313" style="stroke: #A80036; stroke-width: 1.0;"/><line style="stroke: #A80036; stroke-width: 1.0;" x1="361" x2="620" y1="391.0313" y2="391.0313"/><text fill="#000000" font-family="sans-serif" font-size="13" lengthAdjust="spacingAndGlyphs" textLength="221" x="368" y="386.0981">processMessageFromHost(Export)</text><polygon fill="#A80036" points="372,416.1641,362,420.1641,372,424.1641,368,420.1641" style="stroke: #A80036; stroke-width: 1.0;"/><line style="stroke: #A80036; stroke-width: 1.0; stroke-dasharray: 2.0,2.0;" x1="366" x2="625" y1="420.1641" y2="420.1641"/><text fill="#000000" font-family="sans-serif" font-size="13" lengthAdjust="spacingAndGlyphs" textLength="225" x="378" y="415.231">jsRequestHandler(exportResponse)</text><line style="stroke: #A80036; stroke-width: 1.0;" x1="361" x2="403" y1="449.4297" y2="449.4297"/><line style="stroke: #A80036; stroke-width: 1.0;" x1="403" x2="403" y1="449.4297" y2="462.4297"/><line style="stroke: #A80036; stroke-width: 1.0;" x1="362" x2="403" y1="462.4297" y2="462.4297"/><polygon fill="#A80036" points="372,458.4297,362,462.4297,372,466.4297,368,462.4297" style="stroke: #A80036; stroke-width: 1.0;"/><text fill="#000000" font-family="sans-serif" font-size="13" lengthAdjust="spacingAndGlyphs" textLength="251" x="368" y="444.3638">promise.setResponse(exportResponse)</text><!--
@startuml
database Filesystem as file
participant DiagramsEditor as editor <<(C,#ADD1B2)>>
participant DrawioWebView as webview <<(C,#ADD1B2)>>
participant drawio as drawio
activate webview
activate drawio
activate editor
...
drawio -> webview : jsRequestHandler(autosaveEvent)
    activate webview
    webview -> webview : handleEvent(autosaveEvent)
    webview -> webview : _xmlContent.set(event.xml)
alt filename.endsWith(".xml")
        webview -> editor :
        activate editor
            editor -> file : save(xml)
        deactivate editor
else filename.endsWith(".svg")
        editor -> webview : exportSvg()
            webview -> webview : sendMessage(exportEvent)
            webview -> drawio : processMessageFromHost(Export)
            webview <- - drawio : jsRequestHandler(exportResponse)
            webview -> webview : promise.setResponse(exportResponse)
end
...
@enduml

PlantUML version 1.2018.01(Sun Jan 28 19:08:22 CET 2018)
(APACHE source distribution)
Java Runtime: OpenJDK Runtime Environment
JVM: OpenJDK 64-Bit Server VM
Java Version: 1.8.0_265-b01
Operating System: Linux
OS Version: 4.19.104-microsoft-standard
Default Encoding: UTF-8
Language: en
Country: US
--></g></svg>