<?xml version="1.0" encoding="UTF-8" standalone="no"?>
<!DOCTYPE svg PUBLIC "-//W3C//DTD SVG 1.1//EN" "http://www.w3.org/Graphics/SVG/1.1/DTD/svg11.dtd">
<svg width="16" height="16" viewBox="0 0 16 16" version="1.1" xmlns="http://www.w3.org/2000/svg" xmlns:xlink="http://www.w3.org/1999/xlink" xml:space="preserve" xmlns:serif="http://www.serif.com/" style="fill-rule:evenodd;clip-rule:evenodd;stroke-linejoin:round;stroke-miterlimit:2;">
    <g>
        <path d="M7,1L3,5L7,5L7,1Z" style="fill:rgb(154,167,176);fill-opacity:0.8;"/>
        <path d="M8,1L8,6L3,6L3,15L7,15.011L7,7L13,7L13,1L8,1Z" style="fill:rgb(154,167,176);fill-opacity:0.8;"/>
        <g transform="matrix(0.193237,0,0,0.193237,7.55556,7.55556)">
            <path d="M43.7,41.934C43.7,42.909 42.909,43.7 41.952,43.7L4.066,43.7C3.091,43.7 2.3,42.909 2.3,41.952L2.3,4.066C2.3,3.091 3.091,2.3 4.048,2.3L41.934,2.3C42.909,2.3 43.7,3.091 43.7,4.048L43.7,41.934Z" style="fill:rgb(240,135,5);fill-rule:nonzero;"/>
            <g transform="matrix(0.999112,0,0,1.08312,0.0112345,-0.337323)">
                <path d="M36.358,26.31L31.961,26.31L27.306,16.727C28.354,16.507 29.494,15.587 29.476,14.519L29.476,9.476C29.476,8.225 28.482,7.213 27.231,7.213L27.212,7.213L18.824,7.264C17.573,7.264 16.561,8.257 16.561,9.508L16.561,14.57C16.561,15.637 17.297,16.557 18.346,16.778L14.076,26.324L9.734,26.324C8.482,26.324 7.47,27.318 7.47,28.569L7.47,33.617C7.47,34.868 8.464,35.88 9.715,35.88L9.734,35.88L16.856,35.931C18.107,35.931 19.119,34.937 19.119,33.686L19.119,28.638C19.119,27.387 18.126,26.375 16.874,26.375L16.856,26.375L16.67,26.324L21.234,16.783L24.785,16.783L29.421,26.31L29.217,26.31C27.966,26.31 26.954,27.304 26.954,28.555L26.954,28.573L26.899,33.617C26.899,34.868 27.893,35.88 29.144,35.88L36.285,35.88C37.536,35.88 38.548,34.886 38.548,33.635L38.548,33.617L38.603,28.573C38.603,27.322 37.609,26.31 36.358,26.31Z" style="fill:white;fill-rule:nonzero;"/>
            </g>
        </g>
    </g>
</svg>
