<svg width="15px" height="15px" viewBox="0 0 15 15" version="1.1" xmlns="http://www.w3.org/2000/svg" xmlns:xlink="http://www.w3.org/1999/xlink">
    <g id="Page-1" stroke="none" stroke-width="1" fill="none" fill-rule="evenodd">
        <g id="MarkdownPlugin" fill-rule="nonzero">
            <polygon id="Path" fill="#2D79FE" points="0 15 15 15 15 8 0 8"></polygon>
            <path d="M2.60888672,9.23193359 L5.32617188,9.23193359 L5.32617188,10.1992188 L3.71972656,13.0292969 L5.48339844,13.0292969 L5.48339844,14 L2.44140625,14 L2.44140625,13.0292969 L4.04101562,10.1992188 L2.60888672,10.1992188 L2.60888672,9.23193359 Z M6.0234375,9.23193359 L8.74072266,9.23193359 L8.74072266,10.1923828 L7.13427734,10.1923828 L7.13427734,11.0673828 L8.63134766,11.0673828 L8.63134766,12.0004883 L7.13427734,12.0004883 L7.13427734,13.0258789 L8.74072266,13.0258789 L8.74072266,14 L6.0234375,14 L6.0234375,9.23193359 Z M9.28076172,9.23193359 L10.4121094,9.23193359 L10.9555664,10.7426758 C11.1173511,11.1915713 11.241536,11.5800765 11.328125,11.9082031 L11.3862305,11.9082031 L11.3588867,11.1015625 L11.3588867,9.23193359 L12.425293,9.23193359 L12.425293,14 L11.2973633,14 L10.7539062,12.4892578 C10.5921216,12.0403623 10.4679366,11.6507178 10.3813477,11.3203125 L10.3198242,11.3203125 L10.347168,12.1269531 L10.347168,14 L9.28076172,14 L9.28076172,9.23193359 Z" id="ZEN" fill="#FFFFFF"></path>
            <polygon id="Path" fill-opacity="0.8" fill="#9AA7B0" points="6 0 2 4 6 4"></polygon>
            <polygon id="Path" fill-opacity="0.8" fill="#9AA7B0" points="7 0 7 5 2 5 2 7 12 7 12 0"></polygon>
        </g>
    </g>
</svg>